<?xml version="1.0" standalone="no"?>
<!DOCTYPE svg PUBLIC "-//W3C//DTD SVG 20010904//EN"
 "http://www.w3.org/TR/2001/REC-SVG-20010904/DTD/svg10.dtd">
<svg version="1.0" xmlns="http://www.w3.org/2000/svg"
 width="225.000000pt" height="225.000000pt" viewBox="0 0 225.000000 225.000000"
 preserveAspectRatio="xMidYMid meet">

<g transform="translate(0.000000,225.000000) scale(0.100000,-0.100000)"
fill="#000000" stroke="none">
<path d="M477 2042 c-10 -10 -17 -35 -17 -55 l0 -37 -57 0 c-72 0 -121 -23
-148 -70 -19 -34 -20 -51 -20 -785 0 -709 1 -751 18 -777 45 -65 23 -63 554
-66 474 -3 482 -3 503 18 24 24 25 34 4 54 -14 14 -72 16 -488 16 -446 0 -474
1 -490 18 -15 17 -16 70 -14 603 l3 584 738 3 737 2 0 -201 c0 -119 4 -208 10
-220 12 -21 50 -25 68 -7 9 9 12 104 12 366 0 298 -2 359 -15 385 -24 50 -61
71 -131 75 l-62 4 -5 41 c-8 59 -25 67 -137 67 -111 0 -130 -11 -130 -73 l0
-37 -340 0 -340 0 0 33 c0 18 -7 43 -16 55 -14 20 -23 22 -118 22 -87 0 -105
-3 -119 -18z m208 -137 l0 -110 -90 0 -90 0 -3 99 c-1 55 0 106 2 113 4 11 27
13 93 11 l88 -3 0 -110z m949 99 c3 -9 6 -55 6 -104 0 -63 -4 -91 -14 -99 -9
-8 -43 -11 -93 -9 l-78 3 -3 99 c-1 55 0 106 2 113 8 21 172 18 180 -3z
m-1174 -181 c0 -63 19 -73 132 -73 114 0 138 13 138 75 l0 35 340 0 340 0 0
-37 c0 -62 19 -73 129 -73 53 0 101 4 107 8 18 11 34 48 34 76 0 24 3 26 48
26 26 0 53 -5 60 -12 8 -8 12 -48 12 -115 l0 -103 -740 0 -740 0 0 99 c0 121
7 131 86 131 l54 0 0 -37z"/>
<path d="M930 1440 c-18 -18 -20 -33 -20 -134 0 -161 0 -161 159 -161 157 0
155 -2 159 148 3 103 2 115 -18 140 -21 27 -23 27 -141 27 -106 0 -121 -2
-139 -20z m248 -32 c14 -14 17 -185 4 -206 -6 -9 -37 -12 -118 -10 l-109 3 -3
99 c-1 55 0 106 2 113 7 18 206 19 224 1z"/>
<path d="M1310 1433 c-20 -25 -21 -37 -18 -140 4 -150 2 -148 159 -148 159 0
159 0 159 161 0 154 1 154 -159 154 -118 0 -120 0 -141 -27z m255 -128 l0
-110 -109 -3 c-81 -2 -112 1 -118 10 -13 21 -10 192 4 206 9 9 45 12 118 10
l105 -3 0 -110z"/>
<path d="M547 1072 c-14 -15 -17 -41 -17 -139 0 -157 -4 -153 158 -153 96 0
124 3 136 16 13 12 16 40 16 138 0 160 4 156 -157 156 -103 0 -122 -3 -136
-18z m251 -140 l3 -113 -113 3 -113 3 -3 99 c-1 55 0 106 2 113 4 11 30 13
113 11 l108 -3 3 -113z"/>
<path d="M930 1070 c-18 -18 -20 -33 -20 -133 0 -159 -2 -157 154 -157 164 0
160 -3 164 142 3 104 2 116 -18 141 -21 27 -23 27 -141 27 -106 0 -121 -2
-139 -20z m248 -32 c14 -14 17 -185 4 -206 -6 -9 -37 -12 -118 -10 l-109 3 -3
99 c-1 55 0 106 2 113 7 18 206 19 224 1z"/>
<path d="M550 700 c-18 -18 -20 -33 -20 -138 0 -151 4 -155 126 -161 47 -1
100 0 119 3 60 12 65 23 65 161 0 157 2 155 -157 155 -100 0 -115 -2 -133 -20z
m248 -138 l3 -113 -113 3 -113 3 -3 99 c-1 55 0 106 2 113 4 11 30 13 113 11
l108 -3 3 -113z"/>
<path d="M930 700 c-18 -18 -20 -33 -20 -134 0 -161 0 -161 160 -161 159 0
160 1 160 155 0 93 -3 111 -21 134 -20 25 -23 26 -140 26 -106 0 -121 -2 -139
-20z m248 -32 c14 -14 17 -185 4 -206 -6 -9 -37 -12 -118 -10 l-109 3 -3 90
c-5 142 -10 135 111 135 67 0 107 -4 115 -12z"/>
</g>
</svg>
